<?xml version="1.0" encoding="UTF-8"?>
<!-- Created with Inkscape by VulcanSphere (https://www.inkscape.org/ and https://vulcansphere.com) -->
<svg enable-background="new 0 0 720 308.937" version="1.1" viewBox="0 0 720 308.94" xml:space="preserve" xmlns="http://www.w3.org/2000/svg">
<title id="title1">Hatsune Miku (Project Sekai colour)</title>
<desc id="desc1">Vocaloid software voicebank, character voice no. 1</desc>
<g id="レイヤー_2">
	<g id="デザイン">
		<path id="path1" d="m693.56 62.313h-107.44l-24.531 22.442c-2.002-12.92-13.128-22.449-26.202-22.442h-93.708v-11.579c-0.734-14.948-13.447-26.47-28.395-25.736-0.344 0.017-0.688 0.04-1.031 0.07-8.03-0.353-15.849 2.627-21.607 8.237-1.449 1.449-2.712 3.073-3.76 4.835-4.998-7.765-13.566-12.498-22.8-12.594h-27.157v-25.546h-58.254v25.486h-53.718v4.357c-4.501-2.969-9.768-4.566-15.16-4.596h-78.01c-2.12-0.459-4.278-0.719-6.446-0.776v-24.471h-58.433v24.531h-27.038v56.642h10.087l-49.958 46.795v78.965l67.147-62.671v73.952h57.657v-34.678l12.534 11.937v22.92h98.96v-100.51h2.029v100.27h88.814c10.725-0.259 21.277-2.76 30.977-7.341 10.633-4.908 19.477-13.001 25.307-23.158v30.44h116.81v52.703l38.14 38.14 181.63-169.99v-50.614c0.17-14.206-11.208-25.861-25.415-26.031-0.342-5e-3 -0.684-2e-3 -1.026 8e-3m20.95 74.25-176.02 164.68-23.278-23.218-6.625-6.685-2.805-2.746v-55.986h-117.11v-44.645h146.65c11.203-0.33 20.552 8.483 20.883 19.686 8e-3 0.282 0.011 0.564 7e-3 0.846v33.007l110.6-103.14v-5.969h-59.686l-60.224 55.091v-15.817c-3.638 6.557-10.415 10.759-17.906 11.102h-134v-44.586h133.52c7.63 0.129 14.622 4.283 18.383 10.923v-20.353c-3.33 2.185-7.183 3.442-11.161 3.641h-147.07v-3.462c-3.302 2.079-7.085 3.272-10.982 3.462h-12.773c13.474 10.481 20.983 26.881 20.114 43.929 1.204 21.083-10.642 40.748-29.843 49.54-8.858 4.194-18.494 6.491-28.291 6.745h-83.561v-100.22h-13.131v100.27h-87.381v-19.756l-23.457-22.144v41.781h-46.675v-81.234l-67.207 62.91v-63.865l58.433-54.733h-18.503v-45.78h26.979c-0.029-0.497-0.029-0.995 0-1.492v-22.859h47.272v22.681 1.791h4.059c2.567-0.028 5.123 0.334 7.58 1.074h78.488c10.167-0.287 18.985 6.977 20.652 17.011v-17.011h53.718c-0.056-0.835-0.056-1.672 0-2.507v-22.86h47.272v22.502c0.095 0.953 0.095 1.912 0 2.865h32.649c11.669 0.021 21.112 9.498 21.091 21.167-1e-3 0.306-8e-3 0.611-0.022 0.917 0.181 5.407-1.623 10.694-5.073 14.862 3.057 0.469 5.983 1.566 8.595 3.223v-19.935c0.088-5.292 2.228-10.342 5.969-14.086 4.787-4.603 11.276-7.003 17.906-6.625 11.974-1.178 22.636 7.574 23.814 19.548 0.024 0.248 0.045 0.497 0.06 0.746v16.951h98.96c11.669 0.021 21.112 9.498 21.091 21.167-1e-3 0.306-8e-3 0.611-0.022 0.917-0.014 2.821-0.477 5.621-1.373 8.296l32.887-30.321h105.58c11.202-0.363 20.577 8.423 20.94 19.625 9e-3 0.282 0.012 0.565 0.01 0.847v48.227zm-325.05-18.682v25.367c-1.567-9.274-5.378-18.023-11.102-25.486 1.613-0.067 3.213-0.307 4.775-0.716v0.716l6.327 0.119zm163.9 51.211 55.807-51.092h50.017l-97.408 90.903v-20.293c0.192-7.391-2.887-14.489-8.416-19.398" fill="#3b6073"/>
		<line id="line1" x1="119.67" x2="119.67" y1="28.172" y2="28.351" fill="none"/>
		<rect id="rect1" x="294.43" y="66.192" width="26.919" height="12.952" fill="#fff"/>
		<path id="path2" d="m281.06 144.74h42.974c5.966 0.033 10.776 4.896 10.743 10.863-2e-3 0.359-0.022 0.718-0.06 1.075 0.371 6.219-4.37 11.561-10.589 11.932-0.031 2e-3 -0.063 4e-3 -0.094 5e-3h-42.974v9.908h47.212c10.911-0.095 19.678-9.018 19.583-19.928-4e-3 -0.48-0.026-0.961-0.065-1.439 0.892-11.007-7.307-20.653-18.314-21.545-0.401-0.032-0.802-0.053-1.204-0.061h-47.212v9.19z" fill="#fff"/>
		<path id="path3" d="m693.56 67.864h-105.47l-33.007 30.321c0.845-2.663 1.268-5.443 1.253-8.237 0.527-11.657-8.495-21.535-20.152-22.062-0.305-0.014-0.611-0.021-0.917-0.022h-99.258v-17.011c-0.766-12.007-11.121-21.12-23.129-20.354-0.249 0.016-0.498 0.036-0.746 0.06-6.63-0.378-13.119 2.023-17.906 6.625-3.74 3.744-5.88 8.794-5.969 14.086v19.995c-2.612-1.657-5.538-2.754-8.595-3.223 3.45-4.168 5.255-9.455 5.073-14.862 0.53-11.657-8.49-21.537-20.147-22.067-0.168-8e-3 -0.336-0.013-0.504-0.017h-32.887c0.095-0.953 0.095-1.912 0-2.865v-22.68h-47.033v22.86c-0.056 0.835-0.056 1.672 0 2.507h-53.717v17.13c-1.666-10.034-10.484-17.297-20.652-17.011h-78.488c-2.49-0.793-5.087-1.196-7.7-1.194h-4.238v-1.791-22.501h-46.972v22.86c-0.029 0.497-0.029 0.995 0 1.492h-26.979v45.541h18.503l-58.433 54.911v63.865l67.207-62.91v81.353h46.675v-41.781l23.516 22.144v19.756h87.859v-100.39h13.131v100.21h83.561c9.797-0.254 19.433-2.551 28.291-6.745 19.201-8.791 31.047-28.456 29.843-49.54 0.869-17.049-6.64-33.448-20.114-43.929h12.773c3.898-0.19 7.68-1.382 10.982-3.462v3.462h146.53c3.978-0.199 7.831-1.456 11.161-3.641v20.413c-3.761-6.639-10.754-10.794-18.383-10.923h-133.52v44.645h133.82c7.491-0.343 14.268-4.545 17.906-11.102v15.818l60.164-55.031h59.687v5.969l-110.36 102.96v-33.007c0.137-11.207-8.837-20.403-20.044-20.539-0.282-3e-3 -0.564-1e-3 -0.846 7e-3h-146.65v44.645h117.1v55.986l2.805 2.805 6.625 6.685 23.278 23.218 176.02-164.68v-48.286c0.105-11.207-8.896-20.377-20.103-20.482-0.282-3e-3 -0.565 0-0.847 0.01m-294.55 111.2h136.32c5.633-0.198 10.36 4.209 10.558 9.842 4e-3 0.102 6e-3 0.203 6e-3 0.305v46.138l-26.978 25.546v-57.956h-119.91v-23.875zm278.2-55.448v-20.592h-74.369l-45.72 41.781v-33.544l34.857-32.111h101.47c5.625-0.364 10.48 3.901 10.844 9.527 0.018 0.286 0.025 0.572 0.019 0.859v43.75l-165.57 154.47-17.906-17.906 156.38-146.23zm-302.49 33.663c0 45.899-47.749 45.899-47.749 45.899h-72.758v-92.216h72.937s47.749 0.358 47.749 46.317m-146.95-54.315v-23.874h40.05v-12.893h-27.157v-23.874h123.25c5.999 0.037 10.833 4.93 10.797 10.929-2e-3 0.337-0.02 0.673-0.053 1.008 0.369 6.219-4.373 11.56-10.592 11.929-0.05 3e-3 -0.101 6e-3 -0.151 8e-3h-16.175v12.952h29.485c5.966 0.033 10.776 4.896 10.743 10.863-2e-3 0.359-0.022 0.718-0.06 1.075 0.371 6.219-4.37 11.561-10.589 11.932-0.031 2e-3 -0.063 4e-3 -0.094 5e-3l-149.46-0.06zm93.111-86.127v12.415s0 10.206-13.131 10.206-13.489-10.206-13.489-10.206v-12.415h26.62zm77.95 86.127v-50.912s-0.119-10.266 13.131-10.266 13.549 10.206 13.549 10.206v27.038h109.7c5.999 0.036 10.833 4.929 10.797 10.929-2e-3 0.337-0.02 0.673-0.053 1.008 0.369 6.219-4.373 11.56-10.593 11.929-0.05 3e-3 -0.101 6e-3 -0.151 8e-3l-136.38 0.06zm-383.13 32.768 74.25-69.535h-34.38v-24.889h67.864c6.568-0.567 12.353 4.299 12.919 10.867 0.044 0.515 0.055 1.032 0.033 1.548 0 5.491-7.103 11.579-7.103 11.579l-113.58 106v-35.573zm93.409-118.9v12.415s0 10.206-13.131 10.206-13.549-10.207-13.549-10.207v-12.414h26.68zm111.14 35.811v150.59h-26.978v-137.28h-53.718v-23.875h70.072c5.666-0.199 10.421 4.234 10.619 9.9 2e-3 0.062 4e-3 0.125 5e-3 0.187m-40.527 29.127v121.94h-26.74v-121.7s0-9.132 13.609-9.132 13.131 9.132 13.131 9.132m-29.843-11.639v34.678l-14.026 12.654c-4.971 4.33-12.512 3.811-16.842-1.16-0.162-0.185-0.317-0.376-0.467-0.571-4.024-5.582-3.201-13.298 1.91-17.906l29.425-27.695zm-41.124 133.34h-25.904v-83.561c-0.284-7.378 5.467-13.59 12.846-13.874 3.543-0.136 6.995 1.14 9.597 3.548 1.671 1.671 30.559 28.829 30.559 28.829v34.917l-27.098-25.546v55.687zm296.46-49.897v-23.875h123.13c5.966 0.033 10.776 4.896 10.743 10.863-2e-3 0.359-0.022 0.718-0.06 1.075 0.434 6.149-4.2 11.485-10.349 11.919-0.112 8e-3 -0.223 0.014-0.335 0.019h-123.13z" fill="#fff"/>
		<path id="path4" d="m704.3 132.98v-43.452c-0.062-5.636-4.682-10.155-10.319-10.093-0.082 1e-3 -0.164 3e-3 -0.246 6e-3h-101.47l-34.857 32.111v33.663l45.72-41.781h74.19v20.771l-156.62 145.52 17.906 17.906 165.69-154.65z" fill="#00b6c6"/>
		<path id="path5" d="m96.155 39.453c13.31 0 13.131-10.206 13.131-10.206v-12.475h-26.62v12.474s0 10.206 13.549 10.206" fill="#00b6c6"/>
		<path id="path6" d="m136.56 53.718c0.321-6.585-4.757-12.184-11.342-12.505-0.537-0.026-1.075-0.016-1.61 0.03h-67.864v24.889h34.379l-74.25 69.594v35.812l113.4-106s7.103-5.969 7.103-11.579" fill="#00b6c6"/>
		<path id="path7" d="m136.03 138.17s-28.59-27.157-30.559-28.829c-5.419-5.016-13.878-4.69-18.894 0.729-2.408 2.602-3.685 6.054-3.548 9.597v83.561h25.904v-55.568l27.098 25.426v-34.916z" fill="#00b6c6"/>
		<path id="path8" d="m118.48 115.49c4.015 5.229 11.509 6.213 16.738 2.198 0.195-0.15 0.385-0.306 0.571-0.467l14.026-12.654v-34.677l-29.425 27.456c-5.111 4.608-5.934 12.324-1.91 17.906" fill="#01bacf"/>
		<path id="path9" d="m139.84 42.318v23.875h53.718v137.28h26.978v-151.07c-0.095-5.669-4.768-10.187-10.437-10.092-0.062 1e-3 -0.125 3e-3 -0.187 5e-3h-70.072z" fill="#00b6c6"/>
		<path id="path10" d="m153.16 81.532v121.7h26.74v-121.7s0.537-9.132-13.131-9.132c-13.669 0-13.609 9.132-13.609 9.132" fill="#00b6c6"/>
		<path id="path11" d="m519.27 261.07 26.919-25.546v-46.138c0.078-5.636-4.429-10.268-10.065-10.346-0.266-4e-3 -0.532 3e-3 -0.798 0.02h-136.32v23.875h120.27v58.135z" fill="#00b6c6"/>
		<path id="path12" d="m546.13 90.843c0.593-5.97-3.765-11.291-9.735-11.884-0.335-0.033-0.672-0.051-1.008-0.053h-109.76v-26.859s-0.179-10.266-13.489-10.266-13.131 10.206-13.131 10.206v50.913h136.38c6.224-0.286 11.037-5.563 10.752-11.786-2e-3 -0.05-5e-3 -0.101-8e-3 -0.151" fill="#00b6c6"/>
		<path id="path13" d="m539.21 141.28c0.626-5.934-3.676-11.251-9.609-11.878-0.357-0.038-0.716-0.058-1.075-0.06h-123.13v23.875h123.13c6.159-0.248 10.951-5.443 10.703-11.602-5e-3 -0.112-0.011-0.223-0.019-0.335" fill="#00b6c6"/>
		<path id="path14" d="m307.92 39.453c13.31 0 13.131-10.206 13.131-10.206v-12.475h-26.62v12.474c-1e-3 0-1e-3 10.207 13.489 10.207" fill="#00b6c6"/>
		<path id="path15" d="m254.2 110.96v91.977h72.937s47.749 0 47.749-45.899-47.749-46.317-47.749-46.317l-72.937 0.239zm93.648 46.198c0.89 10.875-7.204 20.412-18.078 21.302-0.499 0.041-0.998 0.063-1.499 0.066h-47.212v-9.908h42.974c6.222-0.319 11.008-5.621 10.689-11.843-2e-3 -0.031-3e-3 -0.063-5e-3 -0.094 0.626-5.933-3.676-11.251-9.609-11.878-0.357-0.038-0.716-0.058-1.075-0.06h-42.974v-9.192h47.212c11.041 0.228 19.806 9.362 19.579 20.403-8e-3 0.402-0.029 0.803-0.061 1.204" fill="#00b6c6"/>
		<path id="path16" d="m387.96 90.843c0.626-5.934-3.676-11.251-9.609-11.878-0.357-0.038-0.716-0.058-1.075-0.06h-29.366v-12.713h16.175c6.224-0.286 11.037-5.563 10.752-11.786-2e-3 -0.05-5e-3 -0.101-8e-3 -0.151 0.593-5.97-3.765-11.291-9.735-11.884-0.335-0.033-0.672-0.051-1.008-0.053h-123.25v23.875h26.978v12.892h-40.05v23.875h149.63c6.222-0.319 11.008-5.621 10.689-11.843-2e-3 -0.031-3e-3 -0.063-5e-3 -0.094m-66.729-11.938h-26.919v-12.893h26.919v12.893z" fill="#00b6c6"/>
		<polygon id="polygon16" points="90.425 233.67 80.219 233.67 80.219 243.76 77.473 243.76 77.473 233.67 62.611 233.67 62.611 268.11 77.473 268.11 77.473 256.35 80.219 256.35 80.219 268.11 95.081 268.11 95.081 233.67" fill="#fff"/>
		<polygon id="polygon17" points="84.874 248.48 84.874 238.33 90.425 238.33 90.425 263.46 84.874 263.46 84.874 251.7 72.758 251.7 72.758 263.46 67.267 263.46 67.267 238.33 72.758 238.33 72.758 248.48" fill="#40c0c2"/>
		<path id="path17" d="m113.4 233.67h-6.864l-16.473 34.439h15.399l3.044-7.461h3.283c0.836 2.149 2.805 7.461 2.805 7.461h16.294l-14.205-34.439h-3.283z" fill="#fff"/>
		<path id="path18" d="m113.4 238.33 10.326 25.128h-5.969l-2.805-7.461h-9.669l-2.984 7.461h-4.835l11.937-25.128h3.999zm0.358 14.683-3.521-9.55-3.88 9.55h7.401z" fill="#40c0c2"/>
		<polygon id="polygon18" points="152.26 233.67 122.36 233.67 122.36 246.33 132.15 246.33 132.15 268.11 147.07 268.11 147.07 246.33 156.92 246.33 156.92 233.67" fill="#fff"/>
		<polygon id="polygon19" points="152.26 238.33 152.26 241.67 142.41 241.67 142.41 263.46 136.86 263.46 136.86 241.67 127.01 241.67 127.01 238.33" fill="#40c0c2"/>
		<path id="path19" d="m152.26 245.19c-0.068 3.056 1.222 5.985 3.521 7.998 0 0.418-0.358 1.015-0.358 1.015l-0.955 0.537c-1.702 0.891-2.745 2.676-2.686 4.596v0.597l0.358 2.925c0.227 2.277 1.886 4.153 4.118 4.656 2.709 0.705 5.497 1.066 8.296 1.074 3.683 0.076 7.282-1.103 10.206-3.342 2.728-2.272 4.303-5.641 4.297-9.192 0.054-3.59-1.782-6.944-4.835-8.834v-0.298l0.955-0.477c1.705-0.896 2.765-2.67 2.746-4.596 0.026-0.198 0.026-0.399 0-0.597v-2.507c-0.298-1.741-1.471-3.207-3.104-3.88-2.487-0.804-5.086-1.207-7.7-1.194-8.714 0-14.802 4.894-14.802 11.937" fill="#fff"/>
		<path id="path20" d="m173.57 241.67v0.597l-0.895 0.537h-0.298c-0.298 0-1.134-0.716-1.313-0.836-1.431-0.708-3-1.095-4.596-1.134-2.686 0-4.238 1.253-4.238 3.163s1.194 2.567 5.252 4.417c4.059 1.85 7.341 3.342 7.341 7.52s-3.999 7.879-10.027 7.879c-2.397-0.041-4.78-0.362-7.103-0.955-0.537 0-0.597-0.298-0.657-0.716l-0.358-2.746v-0.657l0.955-0.537h0.298l1.313 0.776c1.814 1.052 3.872 1.608 5.969 1.612 3.402 0 4.596-1.791 4.596-3.462s-1.552-2.626-4.894-4.118-7.819-3.342-7.819-7.879 4.059-7.282 10.027-7.282c2.022 0.01 4.033 0.311 5.969 0.895 0.358 0 0.358 0.358 0.477 0.716v2.21z" fill="#40c0c2"/>
		<path id="path21" d="m205.68 233.67h-8.714v17.906c0.118 1.171 0.118 2.351 0 3.521-0.707 0.338-1.485 0.502-2.268 0.478-0.434 0.082-0.879 0.082-1.313 0v-1.97-19.935h-15.041v19.876c-0.521 4.114 0.813 8.248 3.641 11.281 3.103 2.675 7.133 4.025 11.221 3.76 4.496 0.212 8.913-1.232 12.415-4.059 3.326-3.47 4.943-8.234 4.417-13.012l0.418-17.906-4.776 0.06z" fill="#fff"/>
		<path id="path22" d="m188.55 238.33v14.981c0 2.805 0 3.999 1.074 5.193 1.356 1.207 3.144 1.81 4.954 1.671 2.203 0.152 4.368-0.628 5.969-2.149 1.253-1.373 1.253-3.223 1.253-6.506v-13.191h3.999l-0.298 13.071c0 4.596-0.358 7.401-2.865 9.61-2.641 2.082-5.954 3.123-9.311 2.925-2.99 0.309-5.978-0.594-8.296-2.507-1.97-1.85-2.208-4.118-2.208-7.879v-15.22h5.729z" fill="#40c0c2"/>
		<path id="path23" d="m239.34 233.67h-8.774v9.968l-9.132-9.968h-10.744v34.439h13.429v-10.326l10.445 11.46 9.49-2.447v-33.126h-4.714z" fill="#fff"/>
		<polygon id="polygon23" points="219.59 238.33 235.7 256 235.34 238.33 239.34 238.33 239.28 263.16 236.06 263.99 219.11 245.49 219.41 263.46 215.47 263.46 215.59 238.33" fill="#40c0c2"/>
		<polygon id="polygon24" points="267.87 233.67 244.95 233.67 244.95 268.11 273.01 268.11 273.01 255.46 271.28 255.46 271.28 246.09 272.53 246.09 272.53 233.67" fill="#fff"/>
		<polygon id="polygon25" points="267.87 238.33 267.87 241.43 255.16 241.43 255.16 248.65 266.56 248.65 266.56 251.82 255.16 251.82 255.16 260.11 268.29 260.11 268.29 263.46 249.67 263.46 249.67 238.33" fill="#40c0c2"/>
		<path id="path25" d="m319.74 233.67h-7.938l-5.969 12.236-5.969-12.236h-12.475l-2.328 34.439h13.668v-3.104l1.612 3.462 8.356-1.313s1.731-3.342 1.85-3.641v4.596h14.683l-1.253-34.439h-4.237z" fill="#fff"/>
		<polygon id="polygon26" points="296.7 238.33 305.42 256.41 314.67 238.33 319.74 238.33 320.64 263.46 315.32 263.46 314.73 245.67 305.66 262.92 303.15 263.28 294.37 245.01 294.14 263.46 290.08 263.46 291.75 238.33" fill="#40c0c2"/>
		<polygon id="polygon27" points="335.92 233.67 325.77 233.67 325.77 268.11 340.63 268.11 340.63 233.67" fill="#fff"/>
		<rect id="rect27" x="330.42" y="238.33" width="5.491" height="25.128" fill="#40c0c2"/>
		<path id="path27" d="m368.74 233.67h-8.058l-4.417 4.775v-4.775h-14.862v34.439h14.862v-4.238c0.537 0.657 3.163 4.238 3.163 4.238h19.04l-14.384-18.622 16.414-15.817h-11.758z" fill="#fff"/>
		<path id="path28" d="m351.61 263.46h-5.431v-25.128h5.491l-0.06 25.128zm17.13-25.128-11.102 10.684 11.281 14.444h-7.103l-9.669-13.37 10.863-11.937 5.73 0.179z" fill="#40c0c2"/>
		<path id="path29" d="m397.69 233.67h-8.655v17.906c0.118 1.171 0.118 2.351 0 3.521-0.683 0.345-1.444 0.51-2.208 0.478-0.453 0.087-0.919 0.087-1.373 0v-1.97-19.935h-15.101v19.876c-0.523 4.125 0.836 8.267 3.701 11.281 3.1 2.681 7.132 4.032 11.221 3.76 4.494 0.201 8.908-1.242 12.415-4.059 3.333-3.462 4.933-8.24 4.357-13.012l0.478-17.906-4.835 0.06z" fill="#fff"/>
		<path id="path30" d="m380.56 238.33v14.981c0 2.805 0 3.999 1.074 5.193 1.374 1.216 3.185 1.819 5.014 1.671 2.205 0.167 4.376-0.615 5.969-2.149 1.253-1.373 1.253-3.223 1.253-6.506v-13.191h3.999v13.071c0 4.596-0.358 7.401-2.865 9.61-2.62 2.078-5.913 3.12-9.251 2.925-2.908 0.232-5.794-0.666-8.058-2.507-1.97-1.85-2.208-4.118-2.208-7.879v-15.22h5.073z" fill="#40c0c2"/>
	</g>
</g>















</svg>
