<?xml version="1.0" encoding="UTF-8" standalone="no"?>
<!-- Created with Inkscape by VulcanSphere (https://www.inkscape.org/ and https://vulcansphere.com) -->

<svg
   enable-background="new 0 0 720 308.937"
   version="1.1"
   viewBox="0 0 720 308.94"
   xml:space="preserve"
   id="svg1"
   sodipodi:docname="hatsunemacs copy.svg"
   inkscape:version="1.4.3 (unknown)"
   inkscape:export-filename="hatsunemacs2.png"
   inkscape:export-xdpi="106.66666"
   inkscape:export-ydpi="106.66666"
   xmlns:inkscape="http://www.inkscape.org/namespaces/inkscape"
   xmlns:sodipodi="http://sodipodi.sourceforge.net/DTD/sodipodi-0.dtd"
   xmlns="http://www.w3.org/2000/svg"
   xmlns:svg="http://www.w3.org/2000/svg"
   xmlns:rdf="http://www.w3.org/1999/02/22-rdf-syntax-ns#"
   xmlns:cc="http://creativecommons.org/ns#"
   xmlns:dc="http://purl.org/dc/elements/1.1/"><defs
   id="defs1">
	

		
		
		
		
		
		
		
		
		
		
		
		
		
		
		
		
		
		
		
		
		
		
		
		
		
		
		
		
		
		
		
		
		
		
		
		
		
		
		
		
	</defs><sodipodi:namedview
   id="namedview1"
   pagecolor="#505050"
   bordercolor="#ffffff"
   borderopacity="1"
   inkscape:showpageshadow="0"
   inkscape:pageopacity="0"
   inkscape:pagecheckerboard="1"
   inkscape:deskcolor="#505050"
   inkscape:zoom="2.26"
   inkscape:cx="360.61947"
   inkscape:cy="163.93805"
   inkscape:window-width="2560"
   inkscape:window-height="1404"
   inkscape:window-x="0"
   inkscape:window-y="0"
   inkscape:window-maximized="1"
   inkscape:current-layer="svg1" />
<title
   id="title1">Hatsune Miku (Project Sekai colour)</title>
<desc
   id="desc1">Vocaloid software voicebank, character voice no. 1</desc>
<path
   id="path1"
   d="M 693.56,62.313 H 586.12 L 561.589,84.755 C 559.587,71.835 548.461,62.306 535.387,62.313 H 441.679 V 50.734 c -0.734,-14.948 -13.447,-26.47 -28.395,-25.736 -0.344,0.017 -0.688,0.04 -1.031,0.07 -8.03,-0.353 -15.849,2.627 -21.607,8.237 -1.449,1.449 -2.712,3.073 -3.76,4.835 -4.998,-7.765 -13.566,-12.498 -22.8,-12.594 H 336.929 V 0 h -58.254 v 25.486 h -53.718 v 4.357 c -4.501,-2.969 -9.768,-4.566 -15.16,-4.596 h -78.01 c -2.12,-0.459 -4.278,-0.719 -6.446,-0.776 V 0 H 66.908 V 24.531 H 39.87 v 56.642 h 10.087 l -49.958,46.795 v 78.965 l 67.147,-62.671 v 73.952 h 57.657 v -34.678 l 12.534,11.937 v 22.92 h 98.96 v -100.51 h 2.029 v 100.27 h 88.814 c 10.725,-0.259 21.277,-2.76 30.977,-7.341 10.633,-4.908 19.477,-13.001 25.307,-23.158 v 30.44 h 116.81 v 52.703 l 38.14,38.14 181.63,-169.99 V 88.333 c 0.17,-14.206 -11.208,-25.861 -25.415,-26.031 -0.342,-0.005 -0.684,-0.002 -1.026,0.008 m 20.95,74.25 -176.02,164.68 -23.278,-23.218 -6.625,-6.685 -2.805,-2.746 V 212.605 H 388.675 V 167.96 h 146.65 c 11.203,-0.33 20.552,8.483 20.883,19.686 0.008,0.282 0.011,0.564 0.007,0.846 v 33.007 l 110.6,-103.14 v -5.969 h -59.686 l -60.224,55.091 v -15.817 c -3.638,6.557 -10.415,10.759 -17.906,11.102 h -134 V 118.18 h 133.52 c 7.63,0.129 14.622,4.283 18.383,10.923 V 108.75 c -3.33,2.185 -7.183,3.442 -11.161,3.641 h -147.07 v -3.462 c -3.302,2.079 -7.085,3.272 -10.982,3.462 h -12.773 c 13.474,10.481 20.983,26.881 20.114,43.929 1.204,21.083 -10.642,40.748 -29.843,49.54 -8.858,4.194 -18.494,6.491 -28.291,6.745 h -83.561 v -100.22 h -13.131 v 100.27 h -87.381 v -19.756 l -23.457,-22.144 v 41.781 H 72.691 V 131.302 L 5.484,194.212 V 130.347 L 63.917,75.614 H 45.414 v -45.78 h 26.979 c -0.029,-0.497 -0.029,-0.995 0,-1.492 V 5.483 h 47.272 v 22.681 1.791 h 4.059 c 2.567,-0.028 5.123,0.334 7.58,1.074 h 78.488 c 10.167,-0.287 18.985,6.977 20.652,17.011 V 31.029 h 53.718 c -0.056,-0.835 -0.056,-1.672 0,-2.507 V 5.662 h 47.272 v 22.502 c 0.095,0.953 0.095,1.912 0,2.865 h 32.649 c 11.669,0.021 21.112,9.498 21.091,21.167 -10e-4,0.306 -0.008,0.611 -0.022,0.917 0.181,5.407 -1.623,10.694 -5.073,14.862 3.057,0.469 5.983,1.566 8.595,3.223 V 51.263 c 0.088,-5.292 2.228,-10.342 5.969,-14.086 4.787,-4.603 11.276,-7.003 17.906,-6.625 11.974,-1.178 22.636,7.574 23.814,19.548 0.024,0.248 0.045,0.497 0.06,0.746 v 16.951 h 98.96 c 11.669,0.021 21.112,9.498 21.091,21.167 -0.001,0.306 -0.008,0.611 -0.022,0.917 -0.014,2.821 -0.477,5.621 -1.373,8.296 l 32.887,-30.321 h 105.58 c 11.202,-0.363 20.577,8.423 20.94,19.625 0.009,0.282 0.012,0.565 0.01,0.847 v 48.227 z m -325.05,-18.682 v 25.367 c -1.567,-9.274 -5.378,-18.023 -11.102,-25.486 1.613,-0.067 3.213,-0.307 4.775,-0.716 v 0.716 z m 163.9,51.211 55.807,-51.092 h 50.017 L 561.779,208.9 v -20.293 c 0.192,-7.391 -2.887,-14.489 -8.416,-19.398"
   fill="#3b6073"
   style="fill:#4c4f69;fill-opacity:1" /><line
   id="line1"
   x1="119.67"
   x2="119.67"
   y1="28.172001"
   y2="28.351"
   fill="none" /><rect
   id="rect1"
   x="294.42999"
   y="66.192001"
   width="26.919001"
   height="12.952"
   fill="#ffffff" /><path
   id="path2"
   d="m 281.06,144.74 h 42.974 c 5.966,0.033 10.776,4.896 10.743,10.863 -0.002,0.359 -0.022,0.718 -0.06,1.075 0.371,6.219 -4.37,11.561 -10.589,11.932 -0.031,0.002 -0.063,0.004 -0.094,0.005 H 281.06 v 9.908 h 47.212 c 10.911,-0.095 19.678,-9.018 19.583,-19.928 -0.004,-0.48 -0.026,-0.961 -0.065,-1.439 0.892,-11.007 -7.307,-20.653 -18.314,-21.545 -0.401,-0.032 -0.802,-0.053 -1.204,-0.061 H 281.06 Z"
   fill="#ffffff" /><path
   id="path21-5"
   d="m 338.40318,247.70154 v 6.55357 h -13.46663 c -0.88068,-0.0887 -1.76813,-0.0887 -2.64805,0 -0.25419,0.53171 -0.37754,1.11683 -0.35949,1.7057 -0.0617,0.32641 -0.0617,0.66108 0,0.98748 h 1.48159 14.99258 v 11.31193 h -14.94821 c -3.09403,0.39183 -6.2031,-0.61144 -8.48414,-2.7383 -2.01179,-2.33368 -3.02709,-5.36454 -2.82779,-8.43901 -0.15944,-3.38132 0.92655,-6.70323 3.05267,-9.33699 2.60968,-2.5014 6.19256,-3.7175 9.78596,-3.32191 l 13.46662,-0.31437 z"
   fill="#ffffff"
   style="stroke-width:0.752073" /><path
   id="path3"
   d="M 693.56,67.864 H 588.09 l -33.007,30.321 c 0.845,-2.663 1.268,-5.443 1.253,-8.237 0.527,-11.657 -8.495,-21.535 -20.152,-22.062 -0.305,-0.014 -0.611,-0.021 -0.917,-0.022 H 436.009 V 50.853 c -0.766,-12.007 -11.121,-21.12 -23.129,-20.354 -0.249,0.016 -0.498,0.036 -0.746,0.06 -6.63,-0.378 -13.119,2.023 -17.906,6.625 -3.74,3.744 -5.88,8.794 -5.969,14.086 v 19.995 c -2.612,-1.657 -5.538,-2.754 -8.595,-3.223 3.45,-4.168 5.255,-9.455 5.073,-14.862 0.53,-11.657 -8.49,-21.537 -20.147,-22.067 -0.168,-0.008 -0.336,-0.013 -0.504,-0.017 h -32.887 c 0.095,-0.953 0.095,-1.912 0,-2.865 V 5.551 h -47.033 v 22.86 c -0.056,0.835 -0.056,1.672 0,2.507 h -53.717 v 17.13 C 228.783,38.014 219.965,30.751 209.797,31.037 h -78.488 c -2.49,-0.793 -5.087,-1.196 -7.7,-1.194 h -4.238 V 28.052 5.551 H 72.399 v 22.86 c -0.029,0.497 -0.029,0.995 0,1.492 H 45.42 V 75.444 H 63.923 L 5.49,130.355 v 63.865 l 67.207,-62.91 v 81.353 h 46.675 v -41.781 l 23.516,22.144 v 19.756 h 87.859 v -100.39 h 13.131 v 100.21 h 83.561 c 9.797,-0.254 19.433,-2.551 28.291,-6.745 19.201,-8.791 31.047,-28.456 29.843,-49.54 0.869,-17.049 -6.64,-33.448 -20.114,-43.929 h 12.773 c 3.898,-0.19 7.68,-1.382 10.982,-3.462 v 3.462 h 146.53 c 3.978,-0.199 7.831,-1.456 11.161,-3.641 v 20.413 c -3.761,-6.639 -10.754,-10.794 -18.383,-10.923 h -133.52 v 44.645 h 133.82 c 7.491,-0.343 14.268,-4.545 17.906,-11.102 v 15.818 l 60.164,-55.031 h 59.687 v 5.969 l -110.36,102.96 v -33.007 c 0.137,-11.207 -8.837,-20.403 -20.044,-20.539 -0.282,-0.003 -0.564,-10e-4 -0.846,0.007 h -146.65 v 44.645 h 117.1 v 55.986 l 2.805,2.805 6.625,6.685 23.278,23.218 176.02,-164.68 V 88.33 c 0.105,-11.207 -8.896,-20.377 -20.103,-20.482 -0.282,-0.003 -0.565,0 -0.847,0.01 m -294.55,111.2 h 136.32 c 5.633,-0.198 10.36,4.209 10.558,9.842 0.004,0.102 0.006,0.203 0.006,0.305 v 46.138 l -26.978,25.546 v -57.956 h -119.91 v -23.875 z m 278.2,-55.448 v -20.592 h -74.369 l -45.72,41.781 v -33.544 l 34.857,-32.111 h 101.47 c 5.625,-0.364 10.48,3.901 10.844,9.527 0.018,0.286 0.025,0.572 0.019,0.859 v 43.75 l -165.57,154.47 -17.906,-17.906 156.38,-146.23 z m -302.49,33.663 c 0,45.899 -47.749,45.899 -47.749,45.899 H 254.21 v -92.216 h 72.937 c 0,0 47.749,0.358 47.749,46.317 M 227.946,102.958 V 79.084 h 40.05 V 66.191 H 240.839 V 42.317 h 123.25 c 5.999,0.037 10.833,4.93 10.797,10.929 -0.002,0.337 -0.02,0.673 -0.053,1.008 0.369,6.219 -4.373,11.56 -10.592,11.929 -0.05,0.003 -0.101,0.006 -0.151,0.008 H 347.915 V 79.143 H 377.4 c 5.966,0.033 10.776,4.896 10.743,10.863 -0.002,0.359 -0.022,0.718 -0.06,1.075 0.371,6.219 -4.37,11.561 -10.589,11.932 -0.031,0.002 -0.063,0.004 -0.094,0.005 l -149.46,-0.06 z m 93.111,-86.127 v 12.415 c 0,0 0,10.206 -13.131,10.206 -13.131,0 -13.489,-10.206 -13.489,-10.206 V 16.831 Z m 77.95,86.127 V 52.046 c 0,0 -0.119,-10.266 13.131,-10.266 13.25,0 13.549,10.206 13.549,10.206 v 27.038 h 109.7 c 5.999,0.036 10.833,4.929 10.797,10.929 -0.002,0.337 -0.02,0.673 -0.053,1.008 0.369,6.219 -4.373,11.56 -10.593,11.929 -0.05,0.003 -0.101,0.006 -0.151,0.008 z M 15.877,135.726 90.127,66.191 H 55.747 V 41.302 h 67.864 c 6.568,-0.567 12.353,4.299 12.919,10.867 0.044,0.515 0.055,1.032 0.033,1.548 0,5.491 -7.103,11.579 -7.103,11.579 l -113.58,106 v -35.573 z m 93.409,-118.9 v 12.415 c 0,0 0,10.206 -13.131,10.206 C 83.024,39.447 82.606,29.24 82.606,29.24 V 16.826 Z m 111.14,35.811 v 150.59 H 193.448 V 65.947 H 139.73 V 42.072 h 70.072 c 5.666,-0.199 10.421,4.234 10.619,9.9 0.002,0.062 0.004,0.125 0.005,0.187 m -40.527,29.127 v 121.94 h -26.74 v -121.7 c 0,0 0,-9.132 13.609,-9.132 13.609,0 13.131,9.132 13.131,9.132 M 150.056,69.887 v 34.678 l -14.026,12.654 c -4.971,4.33 -12.512,3.811 -16.842,-1.16 -0.162,-0.185 -0.317,-0.376 -0.467,-0.571 -4.024,-5.582 -3.201,-13.298 1.91,-17.906 z m -41.124,133.34 H 83.028 v -83.561 c -0.284,-7.378 5.467,-13.59 12.846,-13.874 3.543,-0.136 6.995,1.14 9.597,3.548 1.671,1.671 30.559,28.829 30.559,28.829 v 34.917 L 108.932,147.54 Z m 296.46,-49.897 v -23.875 h 123.13 c 5.966,0.033 10.776,4.896 10.743,10.863 -0.002,0.359 -0.022,0.718 -0.06,1.075 0.434,6.149 -4.2,11.485 -10.349,11.919 -0.112,0.008 -0.223,0.014 -0.335,0.019 h -123.13 z"
   fill="#ffffff" /><path
   id="path4"
   d="M 704.3,132.98 V 89.528 c -0.062,-5.636 -4.682,-10.155 -10.319,-10.093 -0.082,0.001 -0.164,0.003 -0.246,0.006 h -101.47 l -34.857,32.111 v 33.663 l 45.72,-41.781 h 74.19 v 20.771 l -156.62,145.52 17.906,17.906 165.69,-154.65 z"
   fill="#00b6c6"
   style="fill:#0d7b69;fill-opacity:1" /><path
   id="path5"
   d="m 96.155,39.453 c 13.31,0 13.131,-10.206 13.131,-10.206 V 16.772 h -26.62 v 12.474 c 0,0 0,10.206 13.549,10.206"
   fill="#00b6c6"
   style="fill:#0d7b69;fill-opacity:1" /><path
   id="path6"
   d="m 136.56,53.718 c 0.321,-6.585 -4.757,-12.184 -11.342,-12.505 -0.537,-0.026 -1.075,-0.016 -1.61,0.03 H 55.744 v 24.889 h 34.379 l -74.25,69.594 v 35.812 l 113.4,-106 c 0,0 7.103,-5.969 7.103,-11.579"
   fill="#00b6c6"
   style="fill:#0d7b69;fill-opacity:1" /><path
   id="path7"
   d="m 136.03,138.17 c 0,0 -28.59,-27.157 -30.559,-28.829 -5.419,-5.016 -13.878,-4.69 -18.894,0.729 -2.408,2.602 -3.685,6.054 -3.548,9.597 v 83.561 h 25.904 V 147.66 l 27.098,25.426 V 138.17 Z"
   fill="#00b6c6"
   style="fill:#0d7b69;fill-opacity:1" /><path
   id="path8"
   d="m 118.48,115.49 c 4.015,5.229 11.509,6.213 16.738,2.198 0.195,-0.15 0.385,-0.306 0.571,-0.467 l 14.026,-12.654 V 69.89 L 120.39,97.346 c -5.111,4.608 -5.934,12.324 -1.91,17.906"
   fill="#01bacf"
   style="fill:#0d7b69;fill-opacity:1" /><path
   id="path9"
   d="m 139.84,42.318 v 23.875 h 53.718 v 137.28 h 26.978 V 52.403 c -0.095,-5.669 -4.768,-10.187 -10.437,-10.092 -0.062,10e-4 -0.125,0.003 -0.187,0.005 H 139.84 Z"
   fill="#00b6c6"
   style="fill:#0d7b69;fill-opacity:1" /><path
   id="path10"
   d="m 153.16,81.532 v 121.7 h 26.74 v -121.7 c 0,0 0.537,-9.132 -13.131,-9.132 -13.669,0 -13.609,9.132 -13.609,9.132"
   fill="#00b6c6"
   style="fill:#0d7b69;fill-opacity:1" /><path
   id="path11"
   d="m 519.27,261.07 26.919,-25.546 v -46.138 c 0.078,-5.636 -4.429,-10.268 -10.065,-10.346 -0.266,-0.004 -0.532,0.003 -0.798,0.02 h -136.32 v 23.875 h 120.27 v 58.135 z"
   fill="#00b6c6"
   style="fill:#0d7b69;fill-opacity:1" /><path
   id="path12"
   d="m 546.13,90.843 c 0.593,-5.97 -3.765,-11.291 -9.735,-11.884 -0.335,-0.033 -0.672,-0.051 -1.008,-0.053 H 425.627 V 52.047 c 0,0 -0.179,-10.266 -13.489,-10.266 -13.31,0 -13.131,10.206 -13.131,10.206 V 102.9 h 136.38 c 6.224,-0.286 11.037,-5.563 10.752,-11.786 -0.002,-0.05 -0.005,-0.101 -0.008,-0.151"
   fill="#00b6c6"
   style="fill:#0d7b69;fill-opacity:1" /><path
   id="path13"
   d="m 539.21,141.28 c 0.626,-5.934 -3.676,-11.251 -9.609,-11.878 -0.357,-0.038 -0.716,-0.058 -1.075,-0.06 h -123.13 v 23.875 h 123.13 c 6.159,-0.248 10.951,-5.443 10.703,-11.602 -0.005,-0.112 -0.011,-0.223 -0.019,-0.335"
   fill="#00b6c6"
   style="fill:#0d7b69;fill-opacity:1" /><path
   id="path14"
   d="m 307.92,39.453 c 13.31,0 13.131,-10.206 13.131,-10.206 V 16.772 h -26.62 v 12.474 c -10e-4,0 -10e-4,10.207 13.489,10.207"
   fill="#00b6c6"
   style="fill:#0d7b69;fill-opacity:1" /><path
   id="path15"
   d="m 254.2,110.96 v 91.977 h 72.937 c 0,0 47.749,0 47.749,-45.899 0,-45.899 -47.749,-46.317 -47.749,-46.317 z m 93.648,46.198 c 0.89,10.875 -7.204,20.412 -18.078,21.302 -0.499,0.041 -0.998,0.063 -1.499,0.066 h -47.212 v -9.908 h 42.974 c 6.222,-0.319 11.008,-5.621 10.689,-11.843 -0.002,-0.031 -0.003,-0.063 -0.005,-0.094 0.626,-5.933 -3.676,-11.251 -9.609,-11.878 -0.357,-0.038 -0.716,-0.058 -1.075,-0.06 h -42.974 v -9.192 h 47.212 c 11.041,0.228 19.806,9.362 19.579,20.403 -0.008,0.402 -0.029,0.803 -0.061,1.204"
   fill="#00b6c6"
   style="fill:#0d7b69;fill-opacity:1" /><path
   id="path16"
   d="m 387.96,90.843 c 0.626,-5.934 -3.676,-11.251 -9.609,-11.878 -0.357,-0.038 -0.716,-0.058 -1.075,-0.06 H 347.91 V 66.192 h 16.175 c 6.224,-0.286 11.037,-5.563 10.752,-11.786 -0.002,-0.05 -0.005,-0.101 -0.008,-0.151 0.593,-5.97 -3.765,-11.291 -9.735,-11.884 -0.335,-0.033 -0.672,-0.051 -1.008,-0.053 h -123.25 v 23.875 h 26.978 v 12.892 h -40.05 v 23.875 h 149.63 c 6.222,-0.319 11.008,-5.621 10.689,-11.843 -0.002,-0.031 -0.003,-0.063 -0.005,-0.094 M 321.349,79.085 H 294.43 V 66.192 h 26.919 z"
   fill="#00b6c6"
   style="fill:#0d7b69;fill-opacity:1" /><polygon
   id="polygon16"
   points="77.473,233.67 62.611,233.67 62.611,268.11 77.473,268.11 77.473,256.35 80.219,256.35 80.219,268.11 95.081,268.11 95.081,233.67 90.425,233.67 80.219,233.67 80.219,243.76 77.473,243.76 "
   fill="#ffffff" /><polygon
   id="polygon17"
   points="84.874,263.46 84.874,251.7 72.758,251.7 72.758,263.46 67.267,263.46 67.267,238.33 72.758,238.33 72.758,248.48 84.874,248.48 84.874,238.33 90.425,238.33 90.425,263.46 "
   fill="#40c0c2"
   style="fill:#0d7b69;fill-opacity:1" /><path
   id="path17"
   d="m 113.4,233.67 h -6.864 l -16.473,34.439 h 15.399 l 3.044,-7.461 h 3.283 c 0.836,2.149 2.805,7.461 2.805,7.461 h 16.294 L 116.683,233.67 Z"
   fill="#ffffff" /><path
   id="path18"
   d="m 113.4,238.33 10.326,25.128 h -5.969 l -2.805,-7.461 h -9.669 l -2.984,7.461 h -4.835 l 11.937,-25.128 z m 0.358,14.683 -3.521,-9.55 -3.88,9.55 z"
   fill="#40c0c2"
   style="fill:#0d7b69;fill-opacity:1" /><path
   id="path17-0"
   d="m 309.45065,243.25105 h -4.94298 l -11.86273,24.80061 h 11.08931 l 2.19208,-5.37291 h 2.36419 c 0.60203,1.54757 2.01997,5.37291 2.01997,5.37291 h 11.73382 l -10.22947,-24.80061 z"
   fill="#ffffff"
   style="stroke-width:0.720131" /><path
   id="path18-6"
   d="m 309.45065,246.60686 7.43608,18.09546 h -4.29847 l -2.01997,-5.3729 h -6.96295 l -2.14887,5.3729 h -3.48184 l 8.59621,-18.09546 z m 0.25781,10.57369 -2.53559,-6.87725 -2.79411,6.87725 z"
   fill="#40c0c2"
   style="fill:#4c4f69;fill-opacity:1;stroke-width:0.720131" /><polygon
   id="polygon18"
   points="132.15,268.11 147.07,268.11 147.07,246.33 156.92,246.33 156.92,233.67 152.26,233.67 122.36,233.67 122.36,246.33 132.15,246.33 "
   fill="#ffffff" /><polygon
   id="polygon19"
   points="136.86,263.46 136.86,241.67 127.01,241.67 127.01,238.33 152.26,238.33 152.26,241.67 142.41,241.67 142.41,263.46 "
   fill="#40c0c2"
   style="fill:#0d7b69;fill-opacity:1" /><path
   id="path19"
   d="m 152.26,245.19 c -0.068,3.056 1.222,5.985 3.521,7.998 0,0.418 -0.358,1.015 -0.358,1.015 l -0.955,0.537 c -1.702,0.891 -2.745,2.676 -2.686,4.596 v 0.597 l 0.358,2.925 c 0.227,2.277 1.886,4.153 4.118,4.656 2.709,0.705 5.497,1.066 8.296,1.074 3.683,0.076 7.282,-1.103 10.206,-3.342 2.728,-2.272 4.303,-5.641 4.297,-9.192 0.054,-3.59 -1.782,-6.944 -4.835,-8.834 v -0.298 l 0.955,-0.477 c 1.705,-0.896 2.765,-2.67 2.746,-4.596 0.026,-0.198 0.026,-0.399 0,-0.597 v -2.507 c -0.298,-1.741 -1.471,-3.207 -3.104,-3.88 -2.487,-0.804 -5.086,-1.207 -7.7,-1.194 -8.714,0 -14.802,4.894 -14.802,11.937"
   fill="#ffffff" /><path
   id="path20"
   d="m 173.57,241.67 v 0.597 l -0.895,0.537 h -0.298 c -0.298,0 -1.134,-0.716 -1.313,-0.836 -1.431,-0.708 -3,-1.095 -4.596,-1.134 -2.686,0 -4.238,1.253 -4.238,3.163 0,1.91 1.194,2.567 5.252,4.417 4.059,1.85 7.341,3.342 7.341,7.52 0,4.178 -3.999,7.879 -10.027,7.879 -2.397,-0.041 -4.78,-0.362 -7.103,-0.955 -0.537,0 -0.597,-0.298 -0.657,-0.716 l -0.358,-2.746 v -0.657 l 0.955,-0.537 h 0.298 l 1.313,0.776 c 1.814,1.052 3.872,1.608 5.969,1.612 3.402,0 4.596,-1.791 4.596,-3.462 0,-1.671 -1.552,-2.626 -4.894,-4.118 -3.342,-1.492 -7.819,-3.342 -7.819,-7.879 0,-4.537 4.059,-7.282 10.027,-7.282 2.022,0.01 4.033,0.311 5.969,0.895 0.358,0 0.358,0.358 0.477,0.716 v 2.21 z"
   fill="#40c0c2"
   style="fill:#0d7b69;fill-opacity:1" /><path
   id="path21"
   d="m 205.68,233.67 h -8.714 v 17.906 c 0.118,1.171 0.118,2.351 0,3.521 -0.707,0.338 -1.485,0.502 -2.268,0.478 -0.434,0.082 -0.879,0.082 -1.313,0 v -1.97 -19.935 h -15.041 v 19.876 c -0.521,4.114 0.813,8.248 3.641,11.281 3.103,2.675 7.133,4.025 11.221,3.76 4.496,0.212 8.913,-1.232 12.415,-4.059 3.326,-3.47 4.943,-8.234 4.417,-13.012 l 0.418,-17.906 z"
   fill="#ffffff" /><path
   id="path22"
   d="m 188.55,238.33 v 14.981 c 0,2.805 0,3.999 1.074,5.193 1.356,1.207 3.144,1.81 4.954,1.671 2.203,0.152 4.368,-0.628 5.969,-2.149 1.253,-1.373 1.253,-3.223 1.253,-6.506 v -13.191 h 3.999 l -0.298,13.071 c 0,4.596 -0.358,7.401 -2.865,9.61 -2.641,2.082 -5.954,3.123 -9.311,2.925 -2.99,0.309 -5.978,-0.594 -8.296,-2.507 -1.97,-1.85 -2.208,-4.118 -2.208,-7.879 v -15.22 h 5.729 z"
   fill="#40c0c2"
   style="fill:#0d7b69;fill-opacity:1" /><path
   id="path22-3"
   style="fill:#0d7b69;fill-opacity:1;stroke-width:0.752073"
   d="m 334.89844,247.61133 -2.18164,0.0508 c -0.003,0.0125 -0.009,0.0269 -0.0234,0.0391 0.0203,-0.002 0.0372,0.005 0.0469,0.0156 0.0155,0.0212 0.0109,0.0593 -0.0351,0.082 -0.0257,0.0126 -0.0499,0.0271 -0.0723,0.0449 -0.0115,0.01 -0.0229,0.02 -0.0332,0.0312 0.005,-0.002 0.0106,-0.004 0.0156,-0.006 0.0353,-0.014 0.0725,-0.0242 0.10938,-0.0332 0.0347,-0.007 0.0703,-0.0126 0.10547,-0.0156 h 0.002 c 0.0949,-0.006 0.10261,0.0907 0.01,0.0977 -0.0332,0.002 -0.0668,0.008 -0.0996,0.0137 -0.03,0.008 -0.0609,0.0173 -0.0899,0.0293 -0.0465,0.0193 -0.0915,0.0403 -0.13672,0.0625 h -0.002 l -0.002,0.002 v 0.002 l -0.002,0.002 v 0.002 l -0.002,0.002 c -0.0177,0.0419 -0.0332,0.0836 -0.0469,0.12696 -0.004,0.014 -0.009,0.0271 -0.0137,0.041 0.0297,-0.004 0.0599,-0.007 0.0898,-0.01 0.096,-0.008 0.10203,0.0897 0.008,0.0977 -0.044,0.004 -0.0872,0.0104 -0.13086,0.0176 -0.01,0.0309 -0.0204,0.0616 -0.0312,0.0918 -0.0129,0.0356 -0.0286,0.0694 -0.0449,0.10351 -0.0143,0.0313 -0.0286,0.0635 -0.0449,0.0937 -0.013,0.0251 -0.0244,0.0501 -0.0391,0.0742 -0.0106,0.0187 -0.0243,0.0354 -0.0371,0.0527 -0.0146,0.0195 -0.0323,0.0369 -0.0508,0.0527 -0.0177,0.0135 -0.0368,0.0239 -0.0547,0.0371 -0.0112,0.009 -0.0213,0.019 -0.0312,0.0293 -0.005,0.0196 -0.0113,0.039 -0.0176,0.0586 -0.01,0.0286 -0.0213,0.0572 -0.0312,0.0859 -0.006,0.0228 -0.0145,0.0455 -0.0195,0.0684 -0.004,0.0242 -0.0116,0.0485 -0.0176,0.0723 -0.003,0.0135 -0.002,0.007 -0.004,0.0195 -0.011,0.0626 -0.0571,0.0755 -0.082,0.0508 -0.002,0.008 -0.006,0.0156 -0.008,0.0234 -0.006,0.0251 -0.0126,0.051 -0.0176,0.0762 -0.005,0.0254 -0.0135,0.0495 -0.0215,0.0742 -0.005,0.021 -0.0126,0.0413 -0.0176,0.0625 -0.003,0.0198 -0.007,0.039 -0.01,0.0586 -0.003,0.0213 -0.007,0.0439 -0.01,0.0644 -0.002,0.024 -0.007,0.0464 -0.01,0.0703 -0.003,0.025 -0.004,0.0514 -0.008,0.0762 -0.004,0.0204 -0.0107,0.0399 -0.0117,0.0605 0,0.0354 -0.009,0.0721 -0.0117,0.10742 -0.002,0.0347 -0.009,0.0689 -0.0117,0.10352 -0.003,0.0256 -0.003,0.0505 -0.004,0.0762 -5.8e-4,0.0244 -0.002,0.0497 -0.002,0.0742 -1.3e-4,0.0225 2e-5,0.044 0,0.0664 -2e-5,0.0211 0,0.0433 0,0.0645 0,0.003 10e-6,0.005 0,0.008 0,0.0968 -0.0976,0.0968 -0.0976,0 v -0.008 c 0,-0.0213 -2e-5,-0.0433 0,-0.0645 2e-5,-0.0227 -1.4e-4,-0.0458 0,-0.0684 2e-5,-0.0253 -7.3e-4,-0.0509 0,-0.0762 9.9e-4,-0.0279 0.003,-0.0542 0.006,-0.082 0.003,-0.0337 0.01,-0.0677 0.0117,-0.10156 0.001,-0.0202 0.009,-0.0403 0.01,-0.0606 -0.007,0.0256 -0.0134,0.0512 -0.0215,0.0762 -0.0126,0.0395 -0.025,0.0774 -0.041,0.11523 5e-5,0.0157 -0.003,0.0314 -0.004,0.0469 -0.003,0.0331 -0.007,0.065 -0.0137,0.0976 -0.006,0.0245 -0.0164,0.0497 -0.0234,0.0742 l -0.002,0.002 c 0.002,0.0266 0.005,0.0539 0.01,0.0801 0.007,0.0392 -0.006,0.0653 -0.0234,0.0762 -9.6e-4,4.9e-4 -0.005,0.004 -0.006,0.004 -0.001,3.1e-4 -0.005,0.002 -0.006,0.002 -0.002,2.7e-4 -0.008,1e-4 -0.01,0 -0.002,-2.8e-4 -0.008,-0.001 -0.01,-0.002 -0.001,-4.2e-4 -0.005,-0.001 -0.006,-0.002 l -0.002,-0.002 c 0,0.0188 0,0.0377 0,0.0566 v 0.0742 c 0.001,0.0156 -0.003,0.0317 -0.008,0.0469 -0.0172,0.0953 -0.11459,0.0776 -0.0977,-0.0176 0.002,-0.008 0.008,-0.0186 0.01,-0.0273 v -0.002 -0.0742 c -1e-5,-0.0248 0,-0.0494 0,-0.0742 -1e-5,-0.0203 4e-5,-0.0403 0,-0.0606 -7e-5,-0.0229 2.6e-4,-0.0455 0,-0.0684 0,-0.024 -0.007,-0.0484 -0.008,-0.0723 -10e-4,-0.0277 -0.006,-0.0544 -0.008,-0.082 -10e-4,-0.031 4.5e-4,-0.0627 0,-0.0937 0,-0.0218 3e-5,-0.0446 -0.002,-0.0664 -0.001,-0.0263 -0.004,-0.052 -0.008,-0.0781 -0.005,-0.0394 -0.0107,-0.0793 -0.0117,-0.11914 -7e-5,-0.0388 -0.002,-0.0764 -0.002,-0.11523 0,-0.0366 -1.1e-4,-0.0747 -0.002,-0.11133 -0.002,-0.0397 -0.005,-0.0795 -0.008,-0.11914 -0.003,-0.0389 -0.009,-0.0764 -0.0117,-0.11524 -0.004,-0.0505 -0.0107,-0.10174 -0.0117,-0.15234 -0.002,-0.0531 -0.008,-0.105 -0.008,-0.1582 v -0.1211 c 10e-6,-0.043 -3e-5,-0.0859 0,-0.1289 4e-5,-0.0495 -2.4e-4,-0.0989 0,-0.14844 0,-0.0551 0.002,-0.10906 0.004,-0.16406 0.002,-0.0547 0.006,-0.10942 0.01,-0.16407 -6e-5,-0.013 -9e-5,-0.0263 0,-0.0391 -10e-4,-0.0235 -3.3e-4,-0.047 0.002,-0.0703 0.003,-0.0188 0.006,-0.038 0.01,-0.0566 10e-4,-0.012 0.003,-0.0233 0.004,-0.0352 0.004,-0.0359 0.0107,-0.0713 0.0117,-0.10742 0,-0.0292 -2e-5,-0.0588 0.002,-0.0879 0.002,-0.0311 0.009,-0.0608 0.0117,-0.0918 v -0.002 c 9.9e-4,-0.0132 0.008,-0.024 0.0117,-0.0332 l -6.36523,0.14453 c -3.45654,0 -5.56524,0.26884 -7.22656,2.15429 -1.56581,1.98622 -2.34813,4.47921 -2.19922,7.00391 -0.23239,2.2487 0.44603,4.49498 1.88476,6.23828 1.39133,1.4816 3.09727,1.66016 5.92579,1.66016 h 11.44531 v -4.3086 H 323.625 c -2.10956,0 -3.00631,10e-4 -3.9043,-0.80664 -0.90774,-1.01982 -1.36235,-2.36531 -1.25781,-3.72656 -0.11431,-1.65681 0.47329,-3.28421 1.61719,-4.48828 1.0326,-0.94234 2.42353,-0.94336 4.89258,-0.94336 h 9.91992 z m -3.37891,0.0781 0.002,0.002 v 0.002 0.002 c 0.003,-0.002 0.006,-0.004 0.01,-0.006 z m 0.65235,0.92188 -0.004,0.002 c -0.0212,0.0209 -0.0426,0.041 -0.0606,0.0644 -0.002,0.007 -0.002,0.0147 -0.004,0.0215 0.0126,-0.0104 0.0251,-0.0224 0.0351,-0.0352 0.0111,-0.015 0.0222,-0.0306 0.0312,-0.0469 l 0.002,-0.002 v -0.002 z" /><path
   id="path19-2"
   d="m 331.28755,251.84166 c -0.049,2.20072 0.88,4.30999 2.53559,5.75961 0,0.30101 -0.25781,0.73093 -0.25781,0.73093 l -0.68773,0.38671 c -1.22566,0.64164 -1.97676,1.92708 -1.93427,3.30973 v 0.42992 l 0.25781,2.10638 c 0.16347,1.63974 1.35816,2.99071 2.9655,3.35293 1.95083,0.5077 3.95856,0.76766 5.97421,0.77342 2.65224,0.0547 5.244,-0.7943 7.34966,-2.40668 1.96452,-1.63613 3.09873,-4.06226 3.0944,-6.61944 0.0389,-2.58528 -1.28327,-5.0006 -3.48183,-6.36164 v -0.2146 l 0.68772,-0.34351 c 1.22783,-0.64523 1.99117,-1.92275 1.97749,-3.30972 0.0187,-0.14259 0.0187,-0.28733 0,-0.42992 v -1.80537 c -0.2146,-1.25375 -1.05932,-2.30946 -2.23529,-2.79411 -1.79097,-0.57898 -3.66259,-0.8692 -5.54501,-0.85984 -6.27523,0 -10.65939,3.52433 -10.65939,8.59621"
   fill="#ffffff"
   style="stroke-width:0.720131" /><path
   id="path20-3"
   d="m 346.63355,249.3068 v 0.42991 l -0.64451,0.38672 h -0.2146 c -0.2146,0 -0.81663,-0.51562 -0.94554,-0.60203 -1.0305,-0.50986 -2.16039,-0.78855 -3.30972,-0.81663 -1.93427,0 -3.05192,0.90232 -3.05192,2.27777 0,1.37545 0.85984,1.84858 3.78213,3.18082 2.92302,1.33225 5.28649,2.40668 5.28649,5.41539 0,3.00871 -2.87981,5.67392 -7.22076,5.67392 -1.72615,-0.0295 -3.44223,-0.26069 -5.11509,-0.68773 -0.38671,0 -0.42992,-0.2146 -0.47313,-0.51561 l -0.25781,-1.97748 v -0.47313 l 0.68773,-0.38671 h 0.2146 l 0.94553,0.55882 c 1.30632,0.75758 2.78835,1.15797 4.29846,1.16085 2.44989,0 3.30973,-1.28975 3.30973,-2.49309 0,-1.20334 -1.11765,-1.89107 -3.52432,-2.9655 -2.40668,-1.07444 -5.63071,-2.40668 -5.63071,-5.67392 0,-3.26724 2.92301,-5.244 7.22076,-5.244 1.4561,0.007 2.90429,0.22396 4.29846,0.64452 0.25781,0 0.25781,0.25781 0.3435,0.51562 v 1.59149 z"
   fill="#40c0c2"
   style="fill:#4c4f69;fill-opacity:1;stroke-width:0.720131" /><path
   id="path23"
   d="m 239.34,233.67 h -8.774 v 9.968 l -9.132,-9.968 H 210.69 v 34.439 h 13.429 v -10.326 l 10.445,11.46 9.49,-2.447 V 233.67 Z"
   fill="#ffffff" /><polygon
   id="polygon23"
   points="239.28,263.16 236.06,263.99 219.11,245.49 219.41,263.46 215.47,263.46 215.59,238.33 219.59,238.33 235.7,256 235.34,238.33 239.34,238.33 "
   fill="#40c0c2"
   style="fill:#0d7b69;fill-opacity:1" /><polygon
   id="polygon24"
   points="273.01,255.46 271.28,255.46 271.28,246.09 272.53,246.09 272.53,233.67 267.87,233.67 244.95,233.67 244.95,268.11 273.01,268.11 "
   fill="#ffffff" /><polygon
   id="polygon25"
   points="266.56,248.65 266.56,251.82 255.16,251.82 255.16,260.11 268.29,260.11 268.29,263.46 249.67,263.46 249.67,238.33 267.87,238.33 267.87,241.43 255.16,241.43 255.16,248.65 "
   fill="#40c0c2"
   style="fill:#4c4f69;fill-opacity:1" /><path
   id="path25-5"
   d="m 294.08521,243.26831 h -5.7164 l -4.29847,8.81153 -4.29846,-8.81153 h -8.98364 l -1.67647,24.80061 h 9.84276 v -2.23529 l 1.16085,2.49309 6.01742,-0.94553 c 0,0 1.24655,-2.40668 1.33224,-2.622 v 3.30973 h 10.57369 l -0.90232,-24.80061 z"
   fill="#ffffff"
   style="stroke-width:0.720131" /><polygon
   id="polygon26-3"
   points="305.66,262.92 303.15,263.28 294.37,245.01 294.14,263.46 290.08,263.46 291.75,238.33 296.7,238.33 305.42,256.41 314.67,238.33 319.74,238.33 320.64,263.46 315.32,263.46 314.73,245.67 "
   fill="#40c0c2"
   transform="matrix(0.72013143,0,0,0.72013143,63.830391,74.995204)"
   style="fill:#4c4f69;fill-opacity:1" />















<metadata
   id="metadata1"><rdf:RDF><cc:Work
       rdf:about=""><dc:title>Hatsune Miku (Project Sekai colour)</dc:title></cc:Work></rdf:RDF></metadata></svg>
